<?xml version="1.0" standalone="no"?>
<!DOCTYPE svg PUBLIC "-//W3C//DTD SVG 20010904//EN"
 "http://www.w3.org/TR/2001/REC-SVG-20010904/DTD/svg10.dtd">
<svg version="1.0" xmlns="http://www.w3.org/2000/svg"
 width="260.000000pt" height="260.000000pt" viewBox="0 0 260.000000 260.000000"
 preserveAspectRatio="xMidYMid meet">
<metadata>
Created by potrace 1.11, written by Peter Selinger 2001-2013
</metadata>
<g transform="translate(0.000000,260.000000) scale(0.100000,-0.100000)"
fill="#000000" stroke="none">
<path d="M339 2074 c-15 -18 -23 -32 -55 -90 -12 -22 -76 -131 -141 -244 -133
-228 -137 -237 -121 -246 19 -12 660 -6 672 6 8 8 6 20 -8 43 -10 18 -29 50
-41 72 -119 210 -275 470 -282 472 -6 2 -16 -4 -24 -13z"/>
<path d="M494 2076 c-3 -8 12 -45 34 -83 85 -148 97 -169 104 -183 38 -77 186
-315 198 -318 18 -3 351 565 343 585 -8 20 -671 19 -679 -1z m616 -34 c0 -5
-50 -93 -180 -319 -51 -89 -97 -160 -101 -157 -4 2 -28 41 -53 87 -26 45 -57
100 -70 122 -103 177 -146 256 -142 263 4 7 546 11 546 4z"/>
<path d="M1125 1799 c-113 -196 -164 -294 -157 -301 9 -9 225 -11 630 -8 25 0
45 5 48 13 6 17 -324 587 -340 587 -7 0 -88 -131 -181 -291z"/>
<path d="M1443 2082 c-8 -5 8 -43 57 -127 38 -66 73 -127 77 -135 4 -8 33 -59
65 -113 32 -54 58 -101 58 -103 0 -3 16 -30 35 -60 21 -33 42 -54 50 -52 18 4
343 569 337 586 -3 9 -87 12 -335 12 -183 0 -337 -4 -344 -8z m617 -41 c0 -3
-141 -249 -187 -326 -7 -11 -16 -27 -20 -35 -4 -8 -21 -39 -39 -68 -36 -60
-31 -63 -96 53 -79 139 -84 148 -132 228 -25 43 -46 81 -46 84 0 3 -9 17 -20
33 -11 15 -18 29 -16 31 6 5 556 5 556 0z"/>
<path d="M2238 2073 c-14 -18 -34 -51 -86 -143 -14 -25 -74 -130 -135 -233
-75 -130 -106 -192 -99 -199 9 -9 226 -12 635 -8 22 0 40 6 43 13 5 14 -316
579 -333 584 -5 2 -16 -4 -25 -14z"/>
<path d="M5 1380 c-10 -16 -1 -24 133 -132 70 -56 129 -105 132 -108 3 -3 37
-30 75 -60 39 -30 75 -59 81 -65 20 -18 456 -369 528 -424 39 -30 76 -60 81
-66 18 -22 264 -215 273 -215 4 0 21 11 38 24 16 14 112 93 214 176 102 83
194 159 205 168 11 9 40 33 65 52 25 19 47 37 50 40 3 3 28 24 55 45 28 22 52
42 55 46 3 3 63 52 134 110 489 394 479 385 473 403 -5 15 -2583 21 -2592 6z
m729 -49 c9 -7 16 -18 16 -23 0 -5 20 -43 44 -86 24 -42 60 -108 81 -147 21
-38 76 -140 123 -225 47 -85 97 -177 112 -205 15 -27 46 -84 69 -126 22 -42
41 -79 41 -82 0 -4 -28 16 -62 44 -35 28 -106 85 -158 127 -52 42 -97 79 -100
82 -3 3 -95 77 -205 165 -110 87 -202 162 -205 165 -3 3 -94 77 -202 164 -109
87 -198 159 -198 160 0 1 141 1 314 1 250 0 316 -3 330 -14z m1096 10 c0 -2
-21 -43 -47 -90 -25 -47 -62 -115 -81 -151 -19 -36 -38 -69 -42 -75 -4 -5 -29
-50 -55 -100 -26 -49 -85 -157 -130 -240 -46 -82 -100 -183 -121 -223 -22 -39
-43 -71 -47 -69 -5 1 -22 27 -39 57 -17 30 -43 78 -58 105 -15 28 -68 124
-117 215 -50 91 -140 257 -202 368 -61 112 -111 205 -111 205 0 1 236 2 525 2
289 1 525 -1 525 -4z m680 2 c0 -1 -84 -70 -187 -154 -104 -84 -190 -155 -193
-159 -3 -3 -36 -30 -75 -60 -77 -61 -87 -69 -160 -130 -27 -23 -59 -50 -71
-60 -11 -9 -63 -51 -115 -93 -52 -41 -143 -116 -204 -165 -60 -50 -111 -89
-113 -87 -1 1 15 33 36 71 21 38 57 103 79 144 22 41 49 91 60 110 30 53 75
136 123 225 24 44 72 131 107 194 34 62 63 116 63 120 0 4 8 16 18 27 18 19
33 20 325 20 169 0 307 -1 307 -3z"/>
</g>
</svg>
